<svg xmlns="http://www.w3.org/2000/svg" viewBox="0 0 76 76"><defs><style>.cls-1{fill:none;stroke-width:3px;}.cls-1,.cls-2,.cls-3{stroke:#fff;}.cls-1,.cls-3{stroke-miterlimit:10;}.cls-2,.cls-3{fill:#fff;}</style></defs><g id="Layer_2" data-name="Layer 2"><path class="cls-1" d="M64.09,12.29A36.5,36.5,0,1,1,38.28,1.6,36.37,36.37,0,0,1,64.09,12.29" transform="translate(-0.28 -0.1)"/></g><g id="Layer_1" data-name="Layer 1"><path class="cls-2" d="M58.25,44.31H47V36.78a13.49,13.49,0,0,0-.36-4.09,1.58,1.58,0,0,0-1.6-.82,1.66,1.66,0,0,0-1.76,1,15.12,15.12,0,0,0-.37,4.28V57.25a14.09,14.09,0,0,0,.37,4.12,1.92,1.92,0,0,0,3.33,0A15.72,15.72,0,0,0,47,56.84V51.39H58.25v1.69c0,4.48-.31,7.66-1,9.53a9.72,9.72,0,0,1-4.19,4.93,14.4,14.4,0,0,1-8,2.12,16.65,16.65,0,0,1-8.16-1.79,8.73,8.73,0,0,1-4.25-5,32.73,32.73,0,0,1-1-9.53V40.72a55,55,0,0,1,.32-7,9.78,9.78,0,0,1,1.91-4.51,10.7,10.7,0,0,1,4.41-3.41,15.92,15.92,0,0,1,6.49-1.24A15.91,15.91,0,0,1,53,26.47a9.26,9.26,0,0,1,4.25,4.79,28.82,28.82,0,0,1,1,8.94Z" transform="translate(-0.28 -0.1)"/><path class="cls-2" d="M30.13,12.55v10h-6V62.34H14V22.52H8v-10Z" transform="translate(-0.28 -0.1)"/><rect class="cls-3" x="4.03" y="12.45" width="66.27" height="10"/></g></svg>